<?xml version="1.0" standalone="no"?>
<!DOCTYPE svg PUBLIC "-//W3C//DTD SVG 20010904//EN"
 "http://www.w3.org/TR/2001/REC-SVG-20010904/DTD/svg10.dtd">
<svg version="1.0" xmlns="http://www.w3.org/2000/svg"
 width="180.000000pt" height="180.000000pt" viewBox="0 0 180.000000 180.000000"
 preserveAspectRatio="xMidYMid meet">
<metadata>
Created by potrace 1.11, written by Peter Selinger 2001-2013
</metadata>
<g transform="translate(0.000000,180.000000) scale(0.100000,-0.100000)"
fill="#000000" stroke="none">
<path d="M863 1622 c-588 -1 -863 -5 -863 -12 0 -6 5 -16 11 -23 6 -7 64 -94
128 -194 64 -100 203 -317 309 -483 105 -165 192 -304 192 -309 0 -5 4 -11 8
-13 5 -1 54 -75 110 -163 55 -88 110 -173 121 -190 12 -16 26 -42 33 -57 22
-50 34 -39 111 102 16 30 42 75 57 100 15 25 80 140 145 255 65 116 135 238
156 273 22 35 39 65 39 67 0 2 25 48 57 102 66 115 235 409 269 470 24 42 31
72 17 74 -5 0 -15 1 -23 2 -8 1 -403 1 -877 -1z"/>
</g>
</svg>
